<svg xmlns="http://www.w3.org/2000/svg" viewBox='0 0 20 20' fill='#9ca3af'>
  <path
    d="M16.75 9.203a1.463 1.463 0 00.551-2.012l-.742-1.274a1.545 1.545 0 00-2.093-.554c-1.02.579-2.294-.169-2.294-1.324 0-.842-.696-1.539-1.553-1.539H9.176c-.837 0-1.515.666-1.515 1.487v.105c0 1.1-1.214 1.786-2.183 1.234a1.469 1.469 0 00-1.989.522L2.701 7.19a1.461 1.461 0 00.548 2.013 1.465 1.465 0 010 2.554 1.469 1.469 0 00-.548 2.018l.788 1.344a1.471 1.471 0 001.992.52c.966-.55 2.18.132 2.18 1.228 0 .785.649 1.422 1.449 1.422h1.575c.821 0 1.487-.653 1.487-1.459 0-1.123 1.24-1.825 2.23-1.262l.064.036a1.545 1.545 0 002.093-.554l.742-1.275a1.47 1.47 0 00-.55-2.017 1.467 1.467 0 010-2.556z"
    stroke-width="1.3" />
  <path
    d="M12.68 10.395c0 1.453-1.2 2.631-2.682 2.631-1.48 0-2.681-1.178-2.681-2.631 0-1.454 1.2-2.632 2.681-2.632s2.682 1.178 2.682 2.632z"
    stroke="rgba(0, 0, 0, 0.5)" stroke-width="1.3" />
</svg>